<?xml version="1.0" encoding="UTF-8"?>
<svg xmlns="http://www.w3.org/2000/svg" xmlns:xlink="http://www.w3.org/1999/xlink" width="811px" height="304px" viewBox="0 0 405 152" version="1.1">
<defs>
<filter id="alpha" filterUnits="objectBoundingBox" x="0%" y="0%" width="100%" height="100%">
  <feColorMatrix type="matrix" in="SourceGraphic" values="0 0 0 0 1 0 0 0 0 1 0 0 0 0 1 0 0 0 1 0"/>
</filter>
<mask id="mask0">
  <g filter="url(#alpha)">
<rect x="0" y="0" width="405" height="152" style="fill:rgb(0%,0%,0%);fill-opacity:0.2;stroke:none;"/>
  </g>
</mask>
<clipPath id="clip1">
  <rect x="0" y="0" width="405" height="152"/>
</clipPath>
<g id="surface5" clip-path="url(#clip1)">
<path style=" stroke:none;fill-rule:nonzero;fill:rgb(0%,0%,0%);fill-opacity:1;" d="M 90.214844 95 L 90.214844 96.464844 L 78.324219 100.640625 C 78.101562 100.714844 77.859375 100.714844 77.640625 100.628906 L 66.246094 96.34375 L 66.246094 95 C 66.246094 94.449219 66.691406 94 67.242188 94 L 89.214844 94 C 89.769531 94 90.214844 94.449219 90.214844 95 Z M 90.214844 95 "/>
</g>
<mask id="mask1">
  <g filter="url(#alpha)">
<rect x="0" y="0" width="405" height="152" style="fill:rgb(0%,0%,0%);fill-opacity:0.2;stroke:none;"/>
  </g>
</mask>
<clipPath id="clip2">
  <rect x="0" y="0" width="405" height="152"/>
</clipPath>
<g id="surface8" clip-path="url(#clip2)">
<path style=" stroke:none;fill-rule:nonzero;fill:rgb(0%,0%,0%);fill-opacity:1;" d="M 202.363281 92.785156 L 202.910156 94.144531 L 193.433594 102.457031 C 193.257812 102.613281 193.03125 102.699219 192.796875 102.703125 L 180.625 102.984375 L 180.125 101.738281 C 179.921875 101.226562 180.167969 100.644531 180.679688 100.4375 L 201.066406 92.230469 C 201.578125 92.023438 202.15625 92.273438 202.363281 92.785156 Z M 202.363281 92.785156 "/>
</g>
<mask id="mask2">
  <g filter="url(#alpha)">
<rect x="0" y="0" width="405" height="152" style="fill:rgb(0%,0%,0%);fill-opacity:0.2;stroke:none;"/>
  </g>
</mask>
<clipPath id="clip3">
  <rect x="0" y="0" width="405" height="152"/>
</clipPath>
<g id="surface11" clip-path="url(#clip3)">
<path style=" stroke:none;fill-rule:nonzero;fill:rgb(0%,0%,0%);fill-opacity:1;" d="M 301.339844 66.402344 L 300.566406 67.648438 L 288.265625 64.898438 C 288.039062 64.847656 287.835938 64.714844 287.691406 64.527344 L 280.28125 54.859375 L 280.988281 53.71875 C 281.28125 53.25 281.898438 53.109375 282.367188 53.398438 L 301.019531 65.027344 C 301.484375 65.320312 301.628906 65.933594 301.339844 66.402344 Z M 301.339844 66.402344 "/>
</g>
</defs>
<g id="surface1">
<path style=" stroke:none;fill-rule:nonzero;fill:rgb(90.196078%,90.196078%,90.196078%);fill-opacity:1;" d="M 11.621094 134.171875 C 14.515625 135.191406 17.730469 134.621094 20.101562 132.675781 C 23.070312 130.179688 24.003906 126.070312 24.761719 122.261719 L 27 111 L 22.308594 114.234375 C 18.933594 116.5625 15.484375 118.960938 13.148438 122.332031 C 10.8125 125.699219 9.792969 130.300781 11.667969 133.945312 "/>
<path style=" stroke:none;fill-rule:nonzero;fill:rgb(94.901961%,94.901961%,94.901961%);fill-opacity:1;" d="M 12.347656 148.589844 C 11.753906 144.28125 11.148438 139.917969 11.5625 135.566406 C 11.929688 131.699219 13.109375 127.921875 15.507812 124.824219 C 16.78125 123.183594 18.332031 121.777344 20.085938 120.671875 C 20.542969 120.382812 20.964844 121.109375 20.507812 121.398438 C 17.472656 123.320312 15.121094 126.15625 13.800781 129.503906 C 12.339844 133.222656 12.105469 137.277344 12.355469 141.230469 C 12.507812 143.621094 12.832031 145.996094 13.15625 148.367188 C 13.207031 148.589844 13.082031 148.816406 12.863281 148.882812 C 12.640625 148.941406 12.410156 148.8125 12.347656 148.589844 Z M 12.347656 148.589844 "/>
<path style=" stroke:none;fill-rule:nonzero;fill:rgb(90.196078%,90.196078%,90.196078%);fill-opacity:1;" d="M 16.597656 141.679688 C 17.835938 143.566406 19.972656 144.671875 22.230469 144.589844 C 25.082031 144.453125 27.457031 142.460938 29.597656 140.570312 L 35.925781 134.976562 L 31.738281 134.773438 C 28.726562 134.628906 25.636719 134.496094 22.765625 135.425781 C 19.898438 136.355469 17.25 138.59375 16.726562 141.566406 "/>
<path style=" stroke:none;fill-rule:nonzero;fill:rgb(94.901961%,94.901961%,94.901961%);fill-opacity:1;" d="M 10.675781 151.066406 C 13.519531 146.03125 16.816406 140.433594 22.710938 138.644531 C 24.347656 138.148438 26.066406 137.96875 27.769531 138.121094 C 28.308594 138.167969 28.171875 138.996094 27.636719 138.949219 C 24.78125 138.710938 21.925781 139.46875 19.5625 141.089844 C 17.335938 142.703125 15.449219 144.742188 14.007812 147.085938 C 13.089844 148.488281 12.265625 149.949219 11.441406 151.410156 C 11.179688 151.875 10.410156 151.539062 10.675781 151.066406 Z M 10.675781 151.066406 "/>
<path style=" stroke:none;fill-rule:nonzero;fill:rgb(90.196078%,90.196078%,90.196078%);fill-opacity:1;" d="M 271.679688 127.589844 C 275.664062 128.988281 280.089844 128.210938 283.355469 125.527344 C 287.445312 122.089844 288.726562 116.429688 289.769531 111.1875 L 292.855469 95.679688 L 286.394531 100.132812 C 281.75 103.335938 276.996094 106.644531 273.78125 111.28125 C 270.5625 115.921875 269.160156 122.257812 271.746094 127.277344 "/>
<path style=" stroke:none;fill-rule:nonzero;fill:rgb(94.901961%,94.901961%,94.901961%);fill-opacity:1;" d="M 272.675781 147.441406 C 271.863281 141.511719 271.027344 135.503906 271.597656 129.507812 C 272.105469 124.183594 273.726562 118.984375 277.03125 114.71875 C 278.785156 112.457031 280.917969 110.523438 283.335938 108.996094 C 283.964844 108.597656 284.546875 109.597656 283.917969 109.996094 C 279.734375 112.644531 276.5 116.550781 274.675781 121.160156 C 272.664062 126.28125 272.339844 131.867188 272.6875 137.308594 C 272.898438 140.601562 273.34375 143.871094 273.789062 147.136719 C 273.863281 147.441406 273.6875 147.753906 273.386719 147.847656 C 273.078125 147.929688 272.761719 147.75 272.675781 147.441406 Z M 272.675781 147.441406 "/>
<path style=" stroke:none;fill-rule:nonzero;fill:rgb(90.196078%,90.196078%,90.196078%);fill-opacity:1;" d="M 278.527344 137.925781 C 280.238281 140.527344 283.175781 142.046875 286.285156 141.933594 C 290.210938 141.746094 293.484375 139.003906 296.429688 136.398438 L 305.144531 128.695312 L 299.378906 128.417969 C 295.230469 128.21875 290.976562 128.03125 287.023438 129.316406 C 283.074219 130.597656 279.429688 133.679688 278.707031 137.773438 "/>
<path style=" stroke:none;fill-rule:nonzero;fill:rgb(94.901961%,94.901961%,94.901961%);fill-opacity:1;" d="M 270.378906 150.851562 C 274.292969 143.917969 278.832031 136.210938 286.945312 133.746094 C 289.203125 133.0625 291.566406 132.816406 293.917969 133.023438 C 294.65625 133.089844 294.472656 134.230469 293.734375 134.167969 C 289.796875 133.839844 285.871094 134.878906 282.609375 137.113281 C 279.472656 139.25 277.03125 142.222656 274.964844 145.371094 C 273.699219 147.304688 272.566406 149.316406 271.433594 151.324219 C 271.070312 151.964844 270.011719 151.503906 270.378906 150.851562 Z M 270.378906 150.851562 "/>
<path style=" stroke:none;fill-rule:nonzero;fill:rgb(79.607843%,79.607843%,79.607843%);fill-opacity:1;" d="M 234.984375 23.226562 C 234.128906 22.855469 233.691406 21.902344 233.960938 21.007812 C 233.984375 20.941406 233.996094 20.875 234 20.804688 C 234.027344 20.398438 233.78125 20.023438 233.402344 19.882812 C 233.019531 19.742188 232.59375 19.867188 232.347656 20.191406 C 232.308594 20.25 232.273438 20.308594 232.246094 20.375 C 231.875 21.230469 230.921875 21.671875 230.027344 21.398438 C 229.964844 21.375 229.894531 21.363281 229.824219 21.359375 C 229.421875 21.332031 229.046875 21.578125 228.90625 21.957031 C 228.765625 22.339844 228.890625 22.769531 229.214844 23.011719 C 229.273438 23.054688 229.332031 23.089844 229.394531 23.113281 C 230.25 23.488281 230.691406 24.441406 230.417969 25.335938 C 230.398438 25.402344 230.382812 25.46875 230.378906 25.539062 C 230.355469 25.945312 230.597656 26.320312 230.980469 26.460938 C 231.359375 26.601562 231.789062 26.472656 232.03125 26.148438 C 232.074219 26.09375 232.105469 26.035156 232.132812 25.96875 C 232.507812 25.113281 233.460938 24.671875 234.351562 24.945312 C 234.417969 24.964844 234.484375 24.980469 234.554688 24.984375 C 234.960938 25.011719 235.335938 24.765625 235.472656 24.382812 C 235.613281 24.003906 235.488281 23.574219 235.164062 23.332031 C 235.109375 23.289062 235.046875 23.253906 234.984375 23.226562 Z M 234.984375 23.226562 "/>
<path style=" stroke:none;fill-rule:nonzero;fill:rgb(94.509804%,94.509804%,94.509804%);fill-opacity:1;" d="M 269.941406 104.726562 C 269.085938 104.355469 268.648438 103.402344 268.917969 102.507812 C 268.941406 102.441406 268.953125 102.375 268.957031 102.304688 C 268.984375 101.898438 268.738281 101.523438 268.359375 101.382812 C 267.976562 101.242188 267.550781 101.367188 267.304688 101.691406 C 267.265625 101.75 267.230469 101.808594 267.203125 101.875 C 266.832031 102.730469 265.878906 103.171875 264.984375 102.898438 C 264.917969 102.875 264.851562 102.863281 264.78125 102.859375 C 264.378906 102.832031 264.003906 103.078125 263.863281 103.457031 C 263.722656 103.839844 263.847656 104.269531 264.171875 104.511719 C 264.230469 104.554688 264.289062 104.589844 264.351562 104.613281 C 265.207031 104.988281 265.648438 105.941406 265.375 106.835938 C 265.355469 106.902344 265.339844 106.96875 265.335938 107.039062 C 265.3125 107.445312 265.554688 107.820312 265.9375 107.960938 C 266.316406 108.101562 266.746094 107.972656 266.988281 107.648438 C 267.03125 107.59375 267.0625 107.535156 267.089844 107.46875 C 267.464844 106.613281 268.417969 106.171875 269.308594 106.445312 C 269.375 106.464844 269.441406 106.480469 269.511719 106.484375 C 269.917969 106.511719 270.289062 106.265625 270.429688 105.882812 C 270.570312 105.503906 270.445312 105.074219 270.121094 104.832031 C 270.066406 104.789062 270.003906 104.753906 269.941406 104.726562 Z M 269.941406 104.726562 "/>
<path style=" stroke:none;fill-rule:nonzero;fill:rgb(94.509804%,94.509804%,94.509804%);fill-opacity:1;" d="M 86.667969 57.226562 C 85.8125 56.855469 85.375 55.902344 85.644531 55.007812 C 85.667969 54.941406 85.679688 54.875 85.683594 54.804688 C 85.710938 54.398438 85.464844 54.023438 85.085938 53.882812 C 84.703125 53.742188 84.277344 53.867188 84.03125 54.191406 C 83.992188 54.25 83.957031 54.308594 83.929688 54.375 C 83.558594 55.230469 82.605469 55.671875 81.710938 55.398438 C 81.644531 55.375 81.578125 55.363281 81.507812 55.359375 C 81.101562 55.332031 80.730469 55.578125 80.589844 55.957031 C 80.449219 56.339844 80.574219 56.769531 80.898438 57.011719 C 80.953125 57.054688 81.015625 57.089844 81.078125 57.113281 C 81.933594 57.488281 82.375 58.441406 82.101562 59.335938 C 82.082031 59.402344 82.066406 59.46875 82.0625 59.539062 C 82.039062 59.945312 82.28125 60.320312 82.660156 60.460938 C 83.042969 60.601562 83.472656 60.472656 83.714844 60.148438 C 83.757812 60.09375 83.789062 60.035156 83.816406 59.96875 C 84.1875 59.113281 85.144531 58.671875 86.035156 58.945312 C 86.101562 58.964844 86.167969 58.980469 86.238281 58.984375 C 86.644531 59.011719 87.015625 58.765625 87.15625 58.382812 C 87.296875 58.003906 87.171875 57.574219 86.847656 57.332031 C 86.792969 57.289062 86.730469 57.253906 86.667969 57.226562 Z M 86.667969 57.226562 "/>
<path style=" stroke:none;fill-rule:nonzero;fill:rgb(94.509804%,94.509804%,94.509804%);fill-opacity:1;" d="M 166.121094 25 C 166.121094 26.65625 164.78125 28 163.125 28 C 161.46875 28 160.128906 26.65625 160.128906 25 C 160.128906 23.34375 161.46875 22 163.125 22 C 164.78125 22 166.121094 23.34375 166.121094 25 Z M 166.121094 25 "/>
<path style=" stroke:none;fill-rule:nonzero;fill:rgb(54.117647%,21.960784%,96.078431%);fill-opacity:1;" d="M 325.925781 17 C 325.925781 18.65625 324.582031 20 322.929688 20 C 321.273438 20 319.933594 18.65625 319.933594 17 C 319.933594 15.34375 321.273438 14 322.929688 14 C 324.582031 14 325.925781 15.34375 325.925781 17 Z M 325.925781 17 "/>
<path style=" stroke:none;fill-rule:nonzero;fill:rgb(79.607843%,79.607843%,79.607843%);fill-opacity:1;" d="M 93.210938 3 C 93.210938 4.65625 91.871094 6 90.214844 6 C 88.5625 6 87.21875 4.65625 87.21875 3 C 87.21875 1.34375 88.5625 0 90.214844 0 C 91.871094 0 93.210938 1.34375 93.210938 3 Z M 93.210938 3 "/>
<path style=" stroke:none;fill-rule:nonzero;fill:rgb(18.431373%,18.039216%,25.490196%);fill-opacity:1;" d="M 100.199219 120.8125 C 100.199219 132.703125 90.570312 142.34375 78.691406 142.34375 C 66.816406 142.34375 57.1875 132.703125 57.1875 120.8125 C 57.1875 108.917969 66.816406 99.277344 78.691406 99.277344 C 90.570312 99.277344 100.199219 108.917969 100.199219 120.8125 Z M 100.199219 120.8125 "/>
<path style=" stroke:none;fill-rule:nonzero;fill:rgb(18.431373%,18.039216%,25.490196%);fill-opacity:1;" d="M 68.890625 137.710938 L 75.425781 137.710938 L 75.425781 149.433594 L 68.890625 149.433594 Z M 68.890625 137.710938 "/>
<path style=" stroke:none;fill-rule:nonzero;fill:rgb(18.431373%,18.039216%,25.490196%);fill-opacity:1;" d="M 81.960938 137.710938 L 88.492188 137.710938 L 88.492188 149.433594 L 81.960938 149.433594 Z M 81.960938 137.710938 "/>
<path style=" stroke:none;fill-rule:nonzero;fill:rgb(18.431373%,18.039216%,25.490196%);fill-opacity:1;" d="M 79.78125 149.570312 C 79.78125 148.441406 77.34375 147.523438 74.335938 147.523438 C 71.328125 147.523438 68.890625 148.441406 68.890625 149.570312 C 68.890625 150.699219 71.328125 151.613281 74.335938 151.613281 C 77.34375 151.613281 79.78125 150.699219 79.78125 149.570312 Z M 79.78125 149.570312 "/>
<path style=" stroke:none;fill-rule:nonzero;fill:rgb(18.431373%,18.039216%,25.490196%);fill-opacity:1;" d="M 92.847656 149.296875 C 92.847656 148.167969 90.410156 147.25 87.40625 147.25 C 84.398438 147.25 81.960938 148.167969 81.960938 149.296875 C 81.960938 150.425781 84.398438 151.339844 87.40625 151.339844 C 90.410156 151.339844 92.847656 150.425781 92.847656 149.296875 Z M 92.847656 149.296875 "/>
<path style=" stroke:none;fill-rule:nonzero;fill:rgb(18.431373%,18.039216%,25.490196%);fill-opacity:1;" d="M 107.652344 100.300781 C 106.191406 98.835938 101.226562 101.433594 96.570312 106.101562 C 91.910156 110.765625 89.324219 115.738281 90.785156 117.203125 C 92.25 118.664062 97.210938 116.070312 101.867188 111.402344 C 106.527344 106.734375 109.117188 101.765625 107.652344 100.300781 Z M 107.652344 100.300781 "/>
<path style=" stroke:none;fill-rule:nonzero;fill:rgb(18.431373%,18.039216%,25.490196%);fill-opacity:1;" d="M 55.574219 107.601562 C 50.914062 102.933594 45.953125 100.335938 44.488281 101.800781 C 43.027344 103.265625 45.617188 108.234375 50.273438 112.902344 C 54.933594 117.570312 59.894531 120.164062 61.355469 118.703125 C 62.820312 117.238281 60.230469 112.265625 55.574219 107.601562 Z M 55.574219 107.601562 "/>
<path style=" stroke:none;fill-rule:nonzero;fill:rgb(100%,100%,100%);fill-opacity:1;" d="M 85.136719 117.761719 C 85.136719 121.824219 81.847656 125.121094 77.789062 125.121094 C 73.726562 125.121094 70.4375 121.824219 70.4375 117.761719 C 70.4375 113.695312 73.726562 110.402344 77.789062 110.402344 C 81.847656 110.402344 85.136719 113.695312 85.136719 117.761719 Z M 85.136719 117.761719 "/>
<path style=" stroke:none;fill-rule:nonzero;fill:rgb(24.705882%,23.921569%,33.72549%);fill-opacity:1;" d="M 80.238281 117.761719 C 80.238281 119.113281 79.140625 120.214844 77.789062 120.214844 C 76.433594 120.214844 75.335938 119.113281 75.335938 117.761719 C 75.335938 116.40625 76.433594 115.308594 77.789062 115.308594 C 79.140625 115.308594 80.238281 116.40625 80.238281 117.761719 Z M 80.238281 117.761719 "/>
<path style=" stroke:none;fill-rule:nonzero;fill:rgb(100%,100%,100%);fill-opacity:1;" d="M 83.621094 131.371094 C 84.097656 133.972656 82.375 136.464844 79.777344 136.9375 C 77.179688 137.410156 74.691406 135.6875 74.21875 133.085938 L 74.214844 133.078125 C 73.746094 130.476562 75.753906 129.554688 78.351562 129.085938 C 80.949219 128.613281 83.152344 128.769531 83.621094 131.371094 Z M 83.621094 131.371094 "/>
<path style=" stroke:none;fill-rule:nonzero;fill:rgb(89.803922%,89.803922%,89.803922%);fill-opacity:1;" d="M 99.78125 143.410156 C 98.773438 143.414062 97.957031 144.230469 97.957031 145.238281 L 97.957031 149.058594 C 97.957031 150.066406 98.773438 150.886719 99.78125 150.886719 L 129.160156 150.886719 C 130.167969 150.886719 130.984375 150.066406 130.988281 149.058594 L 130.988281 145.238281 C 130.984375 144.230469 130.167969 143.414062 129.160156 143.410156 Z M 99.78125 143.410156 "/>
<path style=" stroke:none;fill-rule:nonzero;fill:rgb(54.117647%,21.960784%,96.078431%);fill-opacity:1;" d="M 116.675781 140.867188 C 116.296875 140.648438 115.8125 140.78125 115.59375 141.160156 L 114.503906 143.050781 L 113.433594 140.933594 C 113.234375 140.542969 112.761719 140.386719 112.371094 140.585938 C 111.980469 140.785156 111.824219 141.261719 112.019531 141.652344 L 112.851562 143.296875 L 112.546875 143.296875 L 112.546875 151 L 116.621094 151 L 116.621094 143.296875 L 116.191406 143.296875 L 116.96875 141.953125 C 117.183594 141.574219 117.054688 141.085938 116.675781 140.867188 Z M 116.675781 140.867188 "/>
<path style=" stroke:none;fill-rule:nonzero;fill:rgb(54.117647%,21.960784%,96.078431%);fill-opacity:1;" d="M 78.140625 106.6875 C 74.316406 106.683594 70.519531 106.101562 66.871094 104.964844 C 66.351562 104.796875 65.996094 104.3125 65.996094 103.765625 L 65.996094 95 C 65.996094 94.308594 66.554688 93.75 67.242188 93.75 L 89.214844 93.75 C 89.90625 93.75 90.464844 94.308594 90.464844 95 L 90.464844 103.761719 C 90.464844 104.3125 90.105469 104.800781 89.578125 104.960938 C 85.871094 106.09375 82.015625 106.675781 78.140625 106.6875 Z M 78.140625 106.6875 "/>
<use xlink:href="#surface5" mask="url(#mask0)"/>
<path style=" stroke:none;fill-rule:nonzero;fill:rgb(54.117647%,21.960784%,96.078431%);fill-opacity:1;" d="M 77.992188 98.945312 C 77.84375 98.945312 77.695312 98.917969 77.554688 98.867188 L 60.523438 92.464844 C 60.03125 92.277344 59.707031 91.804688 59.714844 91.273438 C 59.722656 90.746094 60.058594 90.28125 60.558594 90.109375 L 76.582031 84.621094 C 76.839844 84.535156 77.121094 84.535156 77.378906 84.621094 L 95.261719 90.585938 C 95.769531 90.757812 96.113281 91.230469 96.117188 91.765625 C 96.121094 92.296875 95.785156 92.777344 95.28125 92.953125 L 78.40625 98.875 C 78.273438 98.921875 78.132812 98.945312 77.992188 98.945312 Z M 77.992188 98.945312 "/>
<path style=" stroke:none;fill-rule:nonzero;fill:rgb(24.705882%,23.921569%,33.72549%);fill-opacity:1;" d="M 62.5 98.5 L 62 98.5 L 62 91.25 L 77.230469 91.25 L 77.230469 91.75 L 62.5 91.75 Z M 62.5 98.5 "/>
<path style=" stroke:none;fill-rule:nonzero;fill:rgb(24.705882%,23.921569%,33.72549%);fill-opacity:1;" d="M 63.25 99 C 63.25 99.550781 62.800781 100 62.25 100 C 61.699219 100 61.25 99.550781 61.25 99 C 61.25 98.449219 61.699219 98 62.25 98 C 62.800781 98 63.25 98.449219 63.25 99 Z M 63.25 99 "/>
<path style=" stroke:none;fill-rule:nonzero;fill:rgb(18.431373%,18.039216%,25.490196%);fill-opacity:1;" d="M 224.546875 120.8125 C 224.546875 132.703125 214.917969 142.34375 203.039062 142.34375 C 191.160156 142.34375 181.53125 132.703125 181.53125 120.8125 C 181.53125 108.917969 191.160156 99.277344 203.039062 99.277344 C 214.917969 99.277344 224.546875 108.917969 224.546875 120.8125 Z M 224.546875 120.8125 "/>
<path style=" stroke:none;fill-rule:nonzero;fill:rgb(18.431373%,18.039216%,25.490196%);fill-opacity:1;" d="M 193.238281 137.710938 L 199.773438 137.710938 L 199.773438 149.433594 L 193.238281 149.433594 Z M 193.238281 137.710938 "/>
<path style=" stroke:none;fill-rule:nonzero;fill:rgb(18.431373%,18.039216%,25.490196%);fill-opacity:1;" d="M 206.304688 137.710938 L 212.839844 137.710938 L 212.839844 149.433594 L 206.304688 149.433594 Z M 206.304688 137.710938 "/>
<path style=" stroke:none;fill-rule:nonzero;fill:rgb(18.431373%,18.039216%,25.490196%);fill-opacity:1;" d="M 204.128906 149.570312 C 204.128906 148.441406 201.691406 147.523438 198.683594 147.523438 C 195.675781 147.523438 193.238281 148.441406 193.238281 149.570312 C 193.238281 150.699219 195.675781 151.613281 198.683594 151.613281 C 201.691406 151.613281 204.128906 150.699219 204.128906 149.570312 Z M 204.128906 149.570312 "/>
<path style=" stroke:none;fill-rule:nonzero;fill:rgb(18.431373%,18.039216%,25.490196%);fill-opacity:1;" d="M 217.195312 149.296875 C 217.195312 148.167969 214.757812 147.25 211.75 147.25 C 208.742188 147.25 206.304688 148.167969 206.304688 149.296875 C 206.304688 150.425781 208.742188 151.339844 211.75 151.339844 C 214.757812 151.339844 217.195312 150.425781 217.195312 149.296875 Z M 217.195312 149.296875 "/>
<path style=" stroke:none;fill-rule:nonzero;fill:rgb(18.431373%,18.039216%,25.490196%);fill-opacity:1;" d="M 232 100.300781 C 230.535156 98.835938 225.574219 101.433594 220.917969 106.101562 C 216.257812 110.765625 213.667969 115.738281 215.132812 117.203125 C 216.59375 118.664062 221.558594 116.070312 226.214844 111.402344 C 230.875 106.734375 233.460938 101.765625 232 100.300781 Z M 232 100.300781 "/>
<path style=" stroke:none;fill-rule:nonzero;fill:rgb(18.431373%,18.039216%,25.490196%);fill-opacity:1;" d="M 187.570312 119.4375 C 185.871094 118.257812 181.449219 121.691406 177.6875 127.113281 C 173.929688 132.53125 172.261719 137.882812 173.960938 139.0625 C 175.660156 140.246094 180.085938 136.808594 183.84375 131.390625 C 187.601562 125.972656 189.269531 120.621094 187.570312 119.4375 Z M 187.570312 119.4375 "/>
<path style=" stroke:none;fill-rule:nonzero;fill:rgb(100%,100%,100%);fill-opacity:1;" d="M 209.484375 117.761719 C 209.484375 121.824219 206.195312 125.121094 202.132812 125.121094 C 198.074219 125.121094 194.785156 121.824219 194.785156 117.761719 C 194.785156 113.695312 198.074219 110.402344 202.132812 110.402344 C 206.195312 110.402344 209.484375 113.695312 209.484375 117.761719 Z M 209.484375 117.761719 "/>
<path style=" stroke:none;fill-rule:nonzero;fill:rgb(24.705882%,23.921569%,33.72549%);fill-opacity:1;" d="M 207.082031 115.261719 C 207.082031 116.613281 205.984375 117.714844 204.632812 117.714844 C 203.277344 117.714844 202.179688 116.613281 202.179688 115.261719 C 202.179688 113.90625 203.277344 112.808594 204.632812 112.808594 C 205.984375 112.808594 207.082031 113.90625 207.082031 115.261719 Z M 207.082031 115.261719 "/>
<path style=" stroke:none;fill-rule:nonzero;fill:rgb(100%,100%,100%);fill-opacity:1;" d="M 210.945312 131.371094 C 211.667969 133.972656 209.042969 136.464844 205.082031 136.9375 C 201.121094 137.410156 197.324219 135.6875 196.601562 133.085938 L 196.601562 133.078125 C 195.882812 130.476562 198.945312 129.554688 202.90625 129.085938 C 206.871094 128.613281 210.230469 128.769531 210.945312 131.371094 Z M 210.945312 131.371094 "/>
<path style=" stroke:none;fill-rule:nonzero;fill:rgb(54.117647%,21.960784%,96.078431%);fill-opacity:1;" d="M 195.515625 108.136719 C 191.96875 109.5625 188.226562 110.441406 184.417969 110.75 C 183.871094 110.785156 183.363281 110.46875 183.160156 109.960938 L 179.890625 101.832031 C 179.636719 101.191406 179.945312 100.460938 180.585938 100.203125 L 200.972656 91.996094 C 201.609375 91.742188 202.335938 92.050781 202.59375 92.691406 L 205.859375 100.816406 C 206.066406 101.332031 205.914062 101.917969 205.484375 102.261719 C 202.464844 104.699219 199.105469 106.679688 195.515625 108.136719 Z M 195.515625 108.136719 "/>
<use xlink:href="#surface8" mask="url(#mask1)"/>
<path style=" stroke:none;fill-rule:nonzero;fill:rgb(54.117647%,21.960784%,96.078431%);fill-opacity:1;" d="M 192.492188 101.011719 C 192.355469 101.066406 192.207031 101.097656 192.058594 101.101562 L 173.871094 101.519531 C 173.34375 101.535156 172.867188 101.214844 172.675781 100.722656 C 172.488281 100.226562 172.628906 99.667969 173.027344 99.324219 L 185.847656 88.25 C 186.054688 88.070312 186.316406 87.964844 186.585938 87.945312 L 205.402344 86.804688 C 205.9375 86.773438 206.429688 87.082031 206.632812 87.578125 C 206.835938 88.070312 206.703125 88.640625 206.300781 88.992188 L 192.851562 100.789062 C 192.746094 100.882812 192.625 100.957031 192.492188 101.011719 Z M 192.492188 101.011719 "/>
<path style=" stroke:none;fill-rule:nonzero;fill:rgb(24.705882%,23.921569%,33.72549%);fill-opacity:1;" d="M 177.953125 106.382812 L 177.488281 106.570312 L 174.789062 99.84375 L 188.921875 94.152344 L 189.105469 94.617188 L 175.4375 100.121094 Z M 177.953125 106.382812 "/>
<path style=" stroke:none;fill-rule:nonzero;fill:rgb(24.705882%,23.921569%,33.72549%);fill-opacity:1;" d="M 178.90625 106.941406 C 178.90625 107.492188 178.460938 107.941406 177.90625 107.941406 C 177.355469 107.941406 176.910156 107.492188 176.910156 106.941406 C 176.910156 106.386719 177.355469 105.941406 177.90625 105.941406 C 178.460938 105.941406 178.90625 106.386719 178.90625 106.941406 Z M 178.90625 106.941406 "/>
<path style=" stroke:none;fill-rule:nonzero;fill:rgb(54.117647%,21.960784%,96.078431%);fill-opacity:1;" d="M 284.917969 69.933594 C 281.675781 67.910156 278.757812 65.40625 276.261719 62.507812 C 275.910156 62.089844 275.863281 61.492188 276.152344 61.027344 L 280.777344 53.585938 C 281.144531 53 281.914062 52.820312 282.496094 53.1875 L 301.152344 64.8125 C 301.734375 65.179688 301.914062 65.949219 301.550781 66.535156 L 296.925781 73.972656 C 296.636719 74.441406 296.070312 74.664062 295.539062 74.519531 C 291.792969 73.523438 288.214844 71.976562 284.917969 69.933594 Z M 284.917969 69.933594 "/>
<use xlink:href="#surface11" mask="url(#mask2)"/>
<path style=" stroke:none;fill-rule:nonzero;fill:rgb(54.117647%,21.960784%,96.078431%);fill-opacity:1;" d="M 288.878906 63.285156 C 288.753906 63.207031 288.640625 63.105469 288.546875 62.984375 L 277.472656 48.539062 C 277.152344 48.121094 277.128906 47.542969 277.414062 47.101562 C 277.699219 46.65625 278.230469 46.441406 278.742188 46.558594 L 295.242188 50.378906 C 295.507812 50.441406 295.746094 50.589844 295.921875 50.800781 L 307.953125 65.328125 C 308.292969 65.742188 308.335938 66.324219 308.058594 66.78125 C 307.777344 67.234375 307.242188 67.464844 306.71875 67.347656 L 289.265625 63.445312 C 289.128906 63.414062 289 63.359375 288.878906 63.285156 Z M 288.878906 63.285156 "/>
<path style=" stroke:none;fill-rule:nonzero;fill:rgb(24.705882%,23.921569%,33.72549%);fill-opacity:1;" d="M 275.960938 54.707031 L 275.539062 54.445312 L 279.367188 48.289062 L 292.296875 56.347656 L 292.03125 56.773438 L 279.527344 48.976562 Z M 275.960938 54.707031 "/>
<path style=" stroke:none;fill-rule:nonzero;fill:rgb(24.705882%,23.921569%,33.72549%);fill-opacity:1;" d="M 276.484375 55 C 276.484375 55.550781 276.039062 56 275.488281 56 C 274.933594 56 274.488281 55.550781 274.488281 55 C 274.488281 54.449219 274.933594 54 275.488281 54 C 276.039062 54 276.484375 54.449219 276.484375 55 Z M 276.484375 55 "/>
<path style=" stroke:none;fill-rule:nonzero;fill:rgb(18.431373%,18.039216%,25.490196%);fill-opacity:1;" d="M 358.453125 96.3125 C 358.453125 108.203125 348.824219 117.84375 336.949219 117.84375 C 325.070312 117.84375 315.441406 108.203125 315.441406 96.3125 C 315.441406 84.417969 325.070312 74.777344 336.949219 74.777344 C 348.824219 74.777344 358.453125 84.417969 358.453125 96.3125 Z M 358.453125 96.3125 "/>
<path style=" stroke:none;fill-rule:nonzero;fill:rgb(18.431373%,18.039216%,25.490196%);fill-opacity:1;" d="M 346.28125 110.886719 L 351.859375 107.476562 L 357.960938 117.476562 L 352.386719 120.890625 Z M 346.28125 110.886719 "/>
<path style=" stroke:none;fill-rule:nonzero;fill:rgb(18.431373%,18.039216%,25.490196%);fill-opacity:1;" d="M 335.132812 117.710938 L 340.707031 114.300781 L 346.8125 124.300781 L 341.238281 127.710938 Z M 335.132812 117.710938 "/>
<path style=" stroke:none;fill-rule:nonzero;fill:rgb(18.431373%,18.039216%,25.490196%);fill-opacity:1;" d="M 358.035156 117.59375 C 357.445312 116.632812 354.886719 117.121094 352.324219 118.691406 C 349.757812 120.261719 348.152344 122.316406 348.742188 123.28125 C 349.328125 124.242188 351.886719 123.75 354.453125 122.183594 C 357.019531 120.613281 358.621094 118.558594 358.035156 117.59375 Z M 358.035156 117.59375 "/>
<path style=" stroke:none;fill-rule:nonzero;fill:rgb(18.431373%,18.039216%,25.490196%);fill-opacity:1;" d="M 346.742188 124.183594 C 346.152344 123.222656 343.597656 123.714844 341.03125 125.28125 C 338.464844 126.851562 336.859375 128.90625 337.449219 129.871094 C 338.039062 130.832031 340.59375 130.34375 343.160156 128.773438 C 345.726562 127.203125 347.328125 125.148438 346.742188 124.183594 Z M 346.742188 124.183594 "/>
<path style=" stroke:none;fill-rule:nonzero;fill:rgb(18.431373%,18.039216%,25.490196%);fill-opacity:1;" d="M 319.070312 81.601562 C 314.414062 76.933594 309.449219 74.335938 307.988281 75.800781 C 306.523438 77.265625 309.113281 82.234375 313.773438 86.902344 C 318.429688 91.570312 323.390625 94.164062 324.855469 92.703125 C 326.316406 91.238281 323.730469 86.265625 319.070312 81.601562 Z M 319.070312 81.601562 "/>
<path style=" stroke:none;fill-rule:nonzero;fill:rgb(18.431373%,18.039216%,25.490196%);fill-opacity:1;" d="M 362.296875 102.613281 C 358.539062 97.191406 354.113281 93.757812 352.414062 94.9375 C 350.71875 96.121094 352.386719 101.472656 356.144531 106.890625 C 359.902344 112.308594 364.328125 115.746094 366.027344 114.5625 C 367.726562 113.382812 366.054688 108.03125 362.296875 102.613281 Z M 362.296875 102.613281 "/>
<path style=" stroke:none;fill-rule:nonzero;fill:rgb(100%,100%,100%);fill-opacity:1;" d="M 337.710938 90.261719 C 337.710938 94.324219 334.421875 97.621094 330.363281 97.621094 C 326.300781 97.621094 323.011719 94.324219 323.011719 90.261719 C 323.011719 86.195312 326.300781 82.902344 330.363281 82.902344 C 334.421875 82.902344 337.710938 86.195312 337.710938 90.261719 Z M 337.710938 90.261719 "/>
<path style=" stroke:none;fill-rule:nonzero;fill:rgb(24.705882%,23.921569%,33.72549%);fill-opacity:1;" d="M 330.316406 87.761719 C 330.316406 89.113281 329.21875 90.214844 327.863281 90.214844 C 326.511719 90.214844 325.414062 89.113281 325.414062 87.761719 C 325.414062 86.40625 326.511719 85.308594 327.863281 85.308594 C 329.21875 85.308594 330.316406 86.40625 330.316406 87.761719 Z M 330.316406 87.761719 "/>
<path style=" stroke:none;fill-rule:nonzero;fill:rgb(100%,100%,100%);fill-opacity:1;" d="M 320.898438 102.535156 C 319.503906 104.824219 321.359375 107.917969 325.042969 109.445312 C 328.730469 110.976562 332.847656 110.359375 334.238281 108.074219 L 334.246094 108.066406 C 335.636719 105.777344 332.933594 104.066406 329.25 102.539062 C 325.5625 101.011719 322.285156 100.25 320.898438 102.535156 Z M 320.898438 102.535156 "/>
<path style=" stroke:none;fill-rule:nonzero;fill:rgb(90.196078%,90.196078%,90.196078%);fill-opacity:1;" d="M 329.730469 69.273438 C 331.652344 61.53125 340.128906 56.972656 348.664062 59.09375 C 357.203125 61.21875 362.566406 69.214844 360.644531 76.960938 C 358.722656 84.703125 352.351562 84.726562 343.816406 82.605469 C 335.28125 80.484375 327.8125 77.015625 329.730469 69.273438 Z M 329.730469 69.273438 "/>
<path style=" stroke:none;fill-rule:nonzero;fill:rgb(79.607843%,79.607843%,79.607843%);fill-opacity:1;" d="M 404.5 152 L 0.5 152 C 0.222656 152 0 151.777344 0 151.5 C 0 151.222656 0.222656 151 0.5 151 L 404.5 151 C 404.777344 151 405 151.222656 405 151.5 C 405 151.777344 404.777344 152 404.5 152 Z M 404.5 152 "/>
</g>
</svg>
